
<svg id="main4-icon2" xmlns="http://www.w3.org/2000/svg" xmlns:xlink="http://www.w3.org/1999/xlink" width="84" height="84" viewBox="0 0 84 84">
  <defs>
    <style>
      .cls-1, .cls-4 {
        fill: none;
      }

      .cls-2 {
        fill: #ffc5c8;
        opacity: 0;
      }

      .cls-3 {
        clip-path: url(#clip-path);
      }

      .cls-4 {
        stroke: #f58220;
        stroke-linecap: round;
        stroke-linejoin: round;
        stroke-width: 2px;
      }
    </style>
    <clipPath id="clip-path">
      <rect id="사각형_1654" data-name="사각형 1654" class="cls-1" width="84" height="84"/>
    </clipPath>
  </defs>
  <path id="패스_14178" data-name="패스 14178" class="cls-2" d="M0,0H84V84H0Z"/>
  <g id="그룹_2086" data-name="그룹 2086">
    <g id="그룹_2085" data-name="그룹 2085" class="cls-3">
      <path id="패스_14174" data-name="패스 14174" class="cls-4" d="M55.711,28.882H41.2V17H55.711A1.486,1.486,0,0,1,57.2,18.486V27.4A1.486,1.486,0,0,1,55.711,28.882Z"/>
      <line id="선_44" data-name="선 44" class="cls-4" y2="19.803" transform="translate(41.197 17)"/>
      <path id="패스_14175" data-name="패스 14175" class="cls-4" d="M12,67a30,30,0,0,1,60,0"/>
      <path id="패스_14176" data-name="패스 14176" class="cls-4" d="M72,67a29.433,29.433,0,0,0-8.053-20.241,1.381,1.381,0,0,0-1-.427H58.934a3.063,3.063,0,0,0-3.069,3.039V49.4a3.063,3.063,0,0,0,3.069,3.039,2.346,2.346,0,0,1,2.358,2.34l-.009,4.339a2.346,2.346,0,0,1-2.358,2.331h-9.57a3.063,3.063,0,0,0-3.069,3.039v2.23"/>
      <path id="패스_14177" data-name="패스 14177" class="cls-4" d="M14.294,64.154h13.7A3.582,3.582,0,0,0,31.58,60.6V59.583a1.872,1.872,0,0,1,1.882-1.864h4.584a3.583,3.583,0,0,0,3.59-3.555V52.106a3.582,3.582,0,0,0-3.59-3.553H29.8a3.582,3.582,0,0,0-3.59,3.553,1.873,1.873,0,0,1-1.882,1.864H16.241a1.863,1.863,0,0,0-1.711,1.082,29.251,29.251,0,0,0-2.1,6.934A1.873,1.873,0,0,0,14.294,64.154Z"/>
    </g>
  </g>
</svg>
