<svg xmlns="http://www.w3.org/2000/svg" xmlns:xlink="http://www.w3.org/1999/xlink" width="38" height="37.999" viewBox="0 0 38 37.999">
                                <defs>
                                <clipPath id="clip-path">
                                    <rect id="사각형_735" data-name="사각형 735" class="cls-1" width="38" height="37.999"/>
                                </clipPath>
                                </defs>
                                <g id="youtube-bt" transform="translate(0 -0.001)">
                                <g id="그룹_1260" data-name="그룹 1260" class="cls-2" transform="translate(0 0.001)">
                                    <path id="패스_13500" data-name="패스 13500" class="cls-3" d="M38,19A19,19,0,1,1,19,0,19,19,0,0,1,38,19" transform="translate(0 0)"/>
                                    <path id="패스_13501" data-name="패스 13501" class="cls-4" d="M35.06,23.351A3.049,3.049,0,0,0,32.011,20.3s-2.784-.265-6.76-.265-7.025.265-7.025.265a3.049,3.049,0,0,0-3.049,3.048s-.132,1.7-.132,3.752.132,3.67.132,3.67a3.049,3.049,0,0,0,3.049,3.049s3.9.265,6.826.265,6.958-.265,6.958-.265a3.049,3.049,0,0,0,3.049-3.049s.132-1.623.132-3.67-.132-3.752-.132-3.752m-11.6,6.76v-6.1L28.5,27Z" transform="translate(-5.827 -7.761)"/>
                                </g>
                                </g>
                            </svg>